<svg xmlns="http://www.w3.org/2000/svg" xmlns:xlink="http://www.w3.org/1999/xlink" width="77" zoomAndPan="magnify" viewBox="0 0 57.75 30.000001" height="40" preserveAspectRatio="xMidYMid meet" version="1.0"><defs><g/><clipPath id="e091c08540"><path d="M 6 4.519531 L 19 4.519531 L 19 22 L 6 22 Z M 6 4.519531 " clip-rule="nonzero"/></clipPath><clipPath id="e463ad0076"><path d="M 7 6 L 20.5 6 L 20.5 22.015625 L 7 22.015625 Z M 7 6 " clip-rule="nonzero"/></clipPath></defs><g clip-path="url(#e091c08540)"><path fill="#db241b" d="M 9.707031 14.601562 C 9.707031 12.066406 14.101562 10.394531 14.101562 7.628906 C 14.101562 6.007812 12.679688 4.601562 12.46875 4.519531 C 12.484375 4.632812 12.492188 4.75 12.492188 4.863281 C 12.492188 8.027344 6.34375 10.152344 6.34375 14.09375 C 6.34375 15.804688 7.6875 16.816406 9.121094 17.816406 C 11.84375 19.421875 12.386719 20.269531 12.386719 20.792969 C 12.386719 21.140625 12.1875 21.375 12.1875 21.558594 C 12.734375 20.984375 12.914062 20.460938 12.917969 19.964844 C 12.917969 18.945312 12.011719 18.03125 11.070312 16.992188 C 10.402344 16.226562 9.707031 15.527344 9.707031 14.601562 Z M 18.292969 13.261719 C 17.785156 10.96875 15.03125 8.988281 14.332031 8.765625 L 14.5 9.011719 C 14.601562 9.1875 14.640625 9.386719 14.640625 9.601562 C 14.640625 11.136719 12.375 13.421875 12.277344 13.609375 C 12.183594 13.785156 12.140625 13.972656 12.140625 14.152344 C 12.140625 14.84375 12.777344 15.601562 12.890625 15.601562 C 12.992188 15.601562 15.257812 13.695312 15.320312 12.585938 C 15.585938 12.988281 15.699219 13.363281 15.699219 13.734375 C 15.699219 15.148438 13.953125 17.0625 13.953125 17.0625 C 13.953125 17.460938 15.285156 18.890625 15.4375 18.890625 C 15.476562 18.890625 15.527344 18.84375 15.570312 18.808594 C 17.15625 17.457031 18.382812 15.886719 18.382812 14.109375 C 18.382812 13.832031 18.355469 13.550781 18.292969 13.261719 Z M 18.292969 13.261719 " fill-opacity="1" fill-rule="nonzero"/></g><g clip-path="url(#e463ad0076)"><path fill="#ffffff" d="M 27.398438 6.949219 L 27.398438 9.296875 L 23.15625 9.296875 L 23.15625 11.160156 L 26.285156 11.160156 L 26.285156 13.402344 L 23.15625 13.402344 L 23.15625 17.550781 L 20.203125 17.550781 L 20.203125 6.949219 Z M 33.730469 17.65625 C 32.738281 17.65625 31.824219 17.425781 30.992188 16.964844 C 30.15625 16.492188 29.496094 15.847656 29.003906 15.023438 C 28.523438 14.191406 28.28125 13.253906 28.28125 12.210938 C 28.28125 11.171875 28.523438 10.238281 29.003906 9.417969 C 29.496094 8.585938 30.15625 7.9375 30.992188 7.476562 C 31.824219 7.015625 32.738281 6.785156 33.730469 6.785156 C 34.734375 6.785156 35.644531 7.015625 36.46875 7.476562 C 37.300781 7.9375 37.960938 8.585938 38.441406 9.417969 C 38.921875 10.238281 39.164062 11.171875 39.164062 12.210938 C 39.164062 13.253906 38.921875 14.191406 38.441406 15.023438 C 37.960938 15.847656 37.300781 16.492188 36.46875 16.964844 C 35.636719 17.425781 34.722656 17.65625 33.730469 17.65625 Z M 33.730469 14.917969 C 34.480469 14.917969 35.074219 14.671875 35.507812 14.183594 C 35.949219 13.691406 36.167969 13.035156 36.167969 12.210938 C 36.167969 11.371094 35.949219 10.710938 35.507812 10.226562 C 35.074219 9.738281 34.480469 9.492188 33.730469 9.492188 C 32.96875 9.492188 32.371094 9.738281 31.9375 10.226562 C 31.507812 10.710938 31.292969 11.371094 31.292969 12.210938 C 31.292969 13.042969 31.507812 13.707031 31.9375 14.195312 C 32.371094 14.679688 32.96875 14.917969 33.730469 14.917969 Z M 45.578125 17.65625 C 44.585938 17.65625 43.671875 17.425781 42.839844 16.964844 C 42.003906 16.492188 41.34375 15.847656 40.851562 15.023438 C 40.371094 14.191406 40.128906 13.253906 40.128906 12.210938 C 40.128906 11.171875 40.371094 10.238281 40.851562 9.417969 C 41.34375 8.585938 42.003906 7.9375 42.839844 7.476562 C 43.671875 7.015625 44.585938 6.785156 45.578125 6.785156 C 46.582031 6.785156 47.496094 7.015625 48.316406 7.476562 C 49.148438 7.9375 49.808594 8.585938 50.289062 9.417969 C 50.769531 10.238281 51.011719 11.171875 51.011719 12.210938 C 51.011719 13.253906 50.769531 14.191406 50.289062 15.023438 C 49.808594 15.847656 49.148438 16.492188 48.316406 16.964844 C 47.484375 17.425781 46.570312 17.65625 45.578125 17.65625 Z M 45.578125 14.917969 C 46.332031 14.917969 46.921875 14.671875 47.355469 14.183594 C 47.796875 13.691406 48.015625 13.035156 48.015625 12.210938 C 48.015625 11.371094 47.796875 10.710938 47.355469 10.226562 C 46.921875 9.738281 46.332031 9.492188 45.578125 9.492188 C 44.816406 9.492188 44.21875 9.738281 43.785156 10.226562 C 43.355469 10.710938 43.140625 11.371094 43.140625 12.210938 C 43.140625 13.042969 43.355469 13.707031 43.785156 14.195312 C 44.21875 14.679688 44.816406 14.917969 45.578125 14.917969 Z M 56.539062 6.949219 C 57.652344 6.949219 58.625 7.175781 59.457031 7.628906 C 60.300781 8.070312 60.949219 8.691406 61.398438 9.492188 C 61.851562 10.292969 62.078125 11.210938 62.078125 12.242188 C 62.078125 13.265625 61.847656 14.175781 61.382812 14.980469 C 60.933594 15.78125 60.285156 16.414062 59.441406 16.875 C 58.609375 17.324219 57.640625 17.550781 56.539062 17.550781 L 52.335938 17.550781 L 52.335938 6.949219 Z M 56.3125 14.949219 C 57.175781 14.949219 57.851562 14.714844 58.34375 14.242188 C 58.835938 13.769531 59.082031 13.105469 59.082031 12.242188 C 59.082031 11.371094 58.835938 10.699219 58.34375 10.226562 C 57.851562 9.746094 57.175781 9.507812 56.3125 9.507812 L 55.289062 9.507812 L 55.289062 14.949219 Z M 11.25 21.984375 C 12.363281 21.984375 13.335938 22.210938 14.167969 22.660156 C 15.011719 23.101562 15.660156 23.722656 16.109375 24.527344 C 16.5625 25.328125 16.789062 26.246094 16.789062 27.277344 C 16.789062 28.300781 16.554688 29.210938 16.09375 30.011719 C 15.644531 30.816406 14.996094 31.445312 14.152344 31.90625 C 13.320312 32.359375 12.351562 32.582031 11.25 32.582031 L 7.046875 32.582031 L 7.046875 21.984375 Z M 11.023438 29.984375 C 11.886719 29.984375 12.5625 29.746094 13.054688 29.277344 C 13.546875 28.804688 13.792969 28.136719 13.792969 27.277344 C 13.792969 26.40625 13.546875 25.734375 13.054688 25.261719 C 12.5625 24.78125 11.886719 24.539062 11.023438 24.539062 L 10 24.539062 L 10 29.984375 Z M 21.066406 21.984375 L 21.066406 32.582031 L 18.117188 32.582031 L 18.117188 21.984375 Z M 33.074219 21.984375 L 29.414062 32.582031 L 25.636719 32.582031 L 21.964844 21.984375 L 25.125 21.984375 L 27.535156 29.636719 L 29.925781 21.984375 Z M 33.632812 27.261719 C 33.632812 26.21875 33.847656 25.292969 34.277344 24.480469 C 34.71875 23.660156 35.34375 23.023438 36.144531 22.570312 C 36.949219 22.109375 37.871094 21.878906 38.914062 21.878906 C 40.238281 21.878906 41.351562 22.234375 42.257812 22.945312 C 43.160156 23.648438 43.742188 24.605469 44.003906 25.820312 L 40.828125 25.820312 C 40.636719 25.417969 40.371094 25.113281 40.027344 24.902344 C 39.699219 24.691406 39.3125 24.585938 38.871094 24.585938 C 38.1875 24.585938 37.640625 24.832031 37.230469 25.324219 C 36.828125 25.804688 36.628906 26.449219 36.628906 27.261719 C 36.628906 28.082031 36.828125 28.738281 37.230469 29.230469 C 37.640625 29.710938 38.1875 29.953125 38.871094 29.953125 C 39.3125 29.953125 39.699219 29.847656 40.027344 29.636719 C 40.371094 29.425781 40.636719 29.121094 40.828125 28.71875 L 44.003906 28.71875 C 43.742188 29.933594 43.160156 30.894531 42.257812 31.605469 C 41.351562 32.308594 40.238281 32.660156 38.914062 32.660156 C 37.871094 32.660156 36.949219 32.433594 36.144531 31.980469 C 35.34375 31.519531 34.71875 30.886719 34.277344 30.074219 C 33.847656 29.25 33.632812 28.3125 33.632812 27.261719 Z M 50.488281 32.6875 C 49.492188 32.6875 48.582031 32.457031 47.746094 31.996094 C 46.914062 31.527344 46.253906 30.878906 45.761719 30.058594 C 45.277344 29.226562 45.039062 28.289062 45.039062 27.246094 C 45.039062 26.203125 45.277344 25.273438 45.761719 24.449219 C 46.253906 23.617188 46.914062 22.972656 47.746094 22.511719 C 48.582031 22.050781 49.492188 21.820312 50.488281 21.820312 C 51.492188 21.820312 52.402344 22.050781 53.226562 22.511719 C 54.058594 22.972656 54.71875 23.617188 55.199219 24.449219 C 55.679688 25.273438 55.921875 26.203125 55.921875 27.246094 C 55.921875 28.289062 55.679688 29.226562 55.199219 30.058594 C 54.71875 30.878906 54.058594 31.527344 53.226562 31.996094 C 52.394531 32.457031 51.480469 32.6875 50.488281 32.6875 Z M 50.488281 29.953125 C 51.238281 29.953125 51.832031 29.707031 52.261719 29.214844 C 52.703125 28.726562 52.925781 28.070312 52.925781 27.246094 C 52.925781 26.40625 52.703125 25.742188 52.261719 25.261719 C 51.832031 24.769531 51.238281 24.527344 50.488281 24.527344 C 49.722656 24.527344 49.128906 24.769531 48.695312 25.261719 C 48.265625 25.742188 48.046875 26.40625 48.046875 27.246094 C 48.046875 28.078125 48.265625 28.738281 48.695312 29.230469 C 49.128906 29.710938 49.722656 29.953125 50.488281 29.953125 Z M 61.445312 21.984375 C 62.5625 21.984375 63.535156 22.210938 64.367188 22.660156 C 65.210938 23.101562 65.855469 23.722656 66.308594 24.527344 C 66.761719 25.328125 66.984375 26.246094 66.984375 27.277344 C 66.984375 28.300781 66.753906 29.210938 66.292969 30.011719 C 65.84375 30.816406 65.195312 31.445312 64.351562 31.90625 C 63.519531 32.359375 62.550781 32.582031 61.445312 32.582031 L 57.246094 32.582031 L 57.246094 21.984375 Z M 61.222656 29.984375 C 62.085938 29.984375 62.761719 29.746094 63.253906 29.277344 C 63.746094 28.804688 63.992188 28.136719 63.992188 27.277344 C 63.992188 26.40625 63.746094 25.734375 63.253906 25.261719 C 62.761719 24.78125 62.085938 24.539062 61.222656 24.539062 L 60.199219 24.539062 L 60.199219 29.984375 Z M 71.265625 24.34375 L 71.265625 26.074219 L 74.652344 26.074219 L 74.652344 28.3125 L 71.265625 28.3125 L 71.265625 30.222656 L 75.105469 30.222656 L 75.105469 32.582031 L 68.316406 32.582031 L 68.316406 21.984375 L 75.105469 21.984375 L 75.105469 24.34375 Z M 71.265625 24.34375 " fill-opacity="1" fill-rule="nonzero"/></g><g fill="#ffffff" fill-opacity="1"><g transform="translate(28.351065, 10.478876)"><g><path d="M 0.453125 -10.171875 L 3.203125 -10.171875 C 3.953125 -10.171875 4.492188 -9.988281 4.828125 -9.625 C 5.160156 -9.257812 5.328125 -8.671875 5.328125 -7.859375 L 5.328125 -7.40625 C 5.328125 -6.4375 4.976562 -5.851562 4.28125 -5.65625 C 4.707031 -5.550781 5.007812 -5.296875 5.1875 -4.890625 C 5.363281 -4.484375 5.453125 -3.953125 5.453125 -3.296875 C 5.453125 -2.210938 5.289062 -1.390625 4.96875 -0.828125 C 4.644531 -0.273438 4.054688 0 3.203125 0 L 0.453125 0 Z M 2.859375 -6.34375 C 3.023438 -6.34375 3.140625 -6.40625 3.203125 -6.53125 C 3.265625 -6.664062 3.296875 -6.851562 3.296875 -7.09375 L 3.296875 -8.109375 C 3.296875 -8.441406 3.148438 -8.609375 2.859375 -8.609375 L 2.4375 -8.609375 L 2.4375 -6.34375 Z M 2.640625 -1.78125 C 3.171875 -1.78125 3.4375 -2.035156 3.4375 -2.546875 L 3.4375 -3.8125 C 3.4375 -4.125 3.390625 -4.359375 3.296875 -4.515625 C 3.203125 -4.671875 3.039062 -4.75 2.8125 -4.75 L 2.4375 -4.75 L 2.4375 -1.796875 Z M 2.640625 -1.78125 "/></g></g></g><g fill="#ffffff" fill-opacity="1"><g transform="translate(34.019569, 10.478876)"><g><path d="M 2.8125 0.09375 C 1.96875 0.09375 1.34375 -0.140625 0.9375 -0.609375 C 0.53125 -1.085938 0.328125 -1.789062 0.328125 -2.71875 L 0.328125 -10.171875 L 2.3125 -10.171875 L 2.3125 -2.8125 C 2.3125 -2.488281 2.34375 -2.234375 2.40625 -2.046875 C 2.46875 -1.867188 2.601562 -1.78125 2.8125 -1.78125 C 3.007812 -1.78125 3.140625 -1.867188 3.203125 -2.046875 C 3.265625 -2.222656 3.296875 -2.476562 3.296875 -2.8125 L 3.296875 -10.171875 L 5.28125 -10.171875 L 5.28125 -2.71875 C 5.28125 -1.789062 5.078125 -1.085938 4.671875 -0.609375 C 4.265625 -0.140625 3.644531 0.09375 2.8125 0.09375 Z M 2.8125 0.09375 "/></g></g></g><g fill="#ffffff" fill-opacity="1"><g transform="translate(39.628899, 10.478876)"><g><path d="M 0.453125 0 L 0.453125 -10.171875 L 2.484375 -10.171875 L 2.484375 -1.734375 L 4.578125 -1.734375 L 4.578125 0 Z M 0.453125 0 "/></g></g></g><g fill="#ffffff" fill-opacity="1"><g transform="translate(44.32701, 10.478876)"><g><path d="M 0.453125 0 L 0.453125 -10.171875 L 2.484375 -10.171875 L 2.484375 -1.734375 L 4.578125 -1.734375 L 4.578125 0 Z M 0.453125 0 "/></g></g></g><g fill="#ffffff" fill-opacity="1"><g transform="translate(27.656286, 26.515741)"><g><path d="M 0.453125 0 L 0.453125 -10.171875 L 4.53125 -10.171875 L 4.53125 -8.203125 L 2.5 -8.203125 L 2.5 -6.578125 L 4.421875 -6.578125 L 4.421875 -4.625 L 2.5 -4.625 L 2.5 0 Z M 0.453125 0 "/></g></g></g><g fill="#ffffff" fill-opacity="1"><g transform="translate(32.378067, 26.515741)"><g><path d="M 2.875 0.09375 C 2.050781 0.09375 1.425781 -0.15625 1 -0.65625 C 0.570312 -1.15625 0.359375 -1.859375 0.359375 -2.765625 L 0.359375 -7.609375 C 0.359375 -8.492188 0.570312 -9.15625 1 -9.59375 C 1.425781 -10.039062 2.050781 -10.265625 2.875 -10.265625 C 3.695312 -10.265625 4.320312 -10.039062 4.75 -9.59375 C 5.175781 -9.15625 5.390625 -8.492188 5.390625 -7.609375 L 5.390625 -2.765625 C 5.390625 -1.847656 5.175781 -1.140625 4.75 -0.640625 C 4.320312 -0.148438 3.695312 0.09375 2.875 0.09375 Z M 2.875 -1.78125 C 3.0625 -1.78125 3.1875 -1.859375 3.25 -2.015625 C 3.3125 -2.171875 3.34375 -2.390625 3.34375 -2.671875 L 3.34375 -7.65625 C 3.34375 -7.875 3.3125 -8.050781 3.25 -8.1875 C 3.1875 -8.320312 3.066406 -8.390625 2.890625 -8.390625 C 2.546875 -8.390625 2.375 -8.132812 2.375 -7.625 L 2.375 -2.671875 C 2.375 -2.378906 2.410156 -2.15625 2.484375 -2 C 2.554688 -1.851562 2.6875 -1.78125 2.875 -1.78125 Z M 2.875 -1.78125 "/></g></g></g><g fill="#ffffff" fill-opacity="1"><g transform="translate(38.129414, 26.515741)"><g><path d="M 2.875 0.09375 C 2.050781 0.09375 1.425781 -0.15625 1 -0.65625 C 0.570312 -1.15625 0.359375 -1.859375 0.359375 -2.765625 L 0.359375 -7.609375 C 0.359375 -8.492188 0.570312 -9.15625 1 -9.59375 C 1.425781 -10.039062 2.050781 -10.265625 2.875 -10.265625 C 3.695312 -10.265625 4.320312 -10.039062 4.75 -9.59375 C 5.175781 -9.15625 5.390625 -8.492188 5.390625 -7.609375 L 5.390625 -2.765625 C 5.390625 -1.847656 5.175781 -1.140625 4.75 -0.640625 C 4.320312 -0.148438 3.695312 0.09375 2.875 0.09375 Z M 2.875 -1.78125 C 3.0625 -1.78125 3.1875 -1.859375 3.25 -2.015625 C 3.3125 -2.171875 3.34375 -2.390625 3.34375 -2.671875 L 3.34375 -7.65625 C 3.34375 -7.875 3.3125 -8.050781 3.25 -8.1875 C 3.1875 -8.320312 3.066406 -8.390625 2.890625 -8.390625 C 2.546875 -8.390625 2.375 -8.132812 2.375 -7.625 L 2.375 -2.671875 C 2.375 -2.378906 2.410156 -2.15625 2.484375 -2 C 2.554688 -1.851562 2.6875 -1.78125 2.875 -1.78125 Z M 2.875 -1.78125 "/></g></g></g><g fill="#ffffff" fill-opacity="1"><g transform="translate(43.880761, 26.515741)"><g><path d="M 0.453125 -10.171875 L 3.25 -10.171875 C 3.976562 -10.171875 4.523438 -9.96875 4.890625 -9.5625 C 5.253906 -9.164062 5.441406 -8.570312 5.453125 -7.78125 L 5.46875 -3.015625 C 5.476562 -2.015625 5.304688 -1.257812 4.953125 -0.75 C 4.597656 -0.25 4.007812 0 3.1875 0 L 0.453125 0 Z M 2.859375 -1.796875 C 3.222656 -1.796875 3.40625 -1.976562 3.40625 -2.34375 L 3.40625 -7.59375 C 3.40625 -7.820312 3.382812 -7.992188 3.34375 -8.109375 C 3.3125 -8.222656 3.25 -8.296875 3.15625 -8.328125 C 3.0625 -8.367188 2.914062 -8.390625 2.71875 -8.390625 L 2.5 -8.390625 L 2.5 -1.796875 Z M 2.859375 -1.796875 "/></g></g></g></svg>